<?xml version="1.0" standalone="no"?>
<!DOCTYPE svg PUBLIC "-//W3C//DTD SVG 20010904//EN"
 "http://www.w3.org/TR/2001/REC-SVG-20010904/DTD/svg10.dtd">
<svg version="1.0" xmlns="http://www.w3.org/2000/svg"
 width="1024.000000pt" height="1024.000000pt" viewBox="0 0 1024.000000 1024.000000"
 preserveAspectRatio="xMidYMid meet">
<metadata>
Created by potrace 1.11, written by Peter Selinger 2001-2013
</metadata>
<g transform="translate(0.000000,1024.000000) scale(0.100000,-0.100000)"
fill="#000000" stroke="none">
<path d="M0 5120 l0 -5120 5120 0 5120 0 0 5120 0 5120 -5120 0 -5120 0 0
-5120z m6425 2289 c508 -24 948 -71 1390 -148 187 -33 245 -64 292 -154 38
-72 38 -170 1 -242 -32 -62 -98 -128 -158 -158 -42 -21 -57 -22 -240 -21 -201
2 -351 15 -1075 94 -343 38 -763 72 -776 64 -3 -2 -12 -38 -19 -81 -97 -615
-331 -1556 -785 -3158 -62 -220 -136 -485 -165 -590 -61 -225 -97 -301 -194
-402 -92 -97 -154 -128 -256 -127 -170 1 -297 81 -331 207 -18 67 -12 152 26
366 87 495 196 857 645 2141 144 411 550 1622 550 1640 0 4 -19 6 -42 4 -432
-39 -545 -54 -726 -100 -170 -42 -300 -103 -375 -177 -74 -72 -95 -117 -111
-240 -16 -122 -44 -184 -109 -244 -87 -80 -185 -113 -337 -113 -156 0 -258 36
-344 122 -73 73 -96 137 -97 267 -3 331 190 605 546 776 285 137 694 225 1230
266 366 27 985 31 1460 8z"/>
</g>
</svg>
