<?xml version="1.0" encoding="UTF-8" standalone="no"?>
<svg width="137px" height="137px" viewBox="0 0 137 137" version="1.1" xmlns="http://www.w3.org/2000/svg" xmlns:xlink="http://www.w3.org/1999/xlink" xmlns:sketch="http://www.bohemiancoding.com/sketch/ns">
    <!-- Generator: Sketch 3.3.3 (12081) - http://www.bohemiancoding.com/sketch -->
    <title>Oval 15 + Tap</title>
    <desc>Created with Sketch.</desc>
    <defs></defs>
    <g id="Login" stroke="none" stroke-width="1" fill="none" fill-rule="evenodd" sketch:type="MSPage">
        <g id="iPhone-6" sketch:type="MSArtboardGroup" transform="translate(-121.000000, -210.000000)">
            <g id="btn-copy-+-Oval-15-+-Tap" sketch:type="MSLayerGroup" transform="translate(69.000000, 210.000000)">
                <g id="Oval-15-+-Tap" transform="translate(52.000000, 0.000000)" sketch:type="MSShapeGroup">
                    <circle id="Oval-15" fill="#FA6441" cx="68.5" cy="68.5" r="68.5"></circle>
                    <g id="Imported-Layers" transform="translate(25.000000, 36.000000)" fill="#FFFFFF">
                        <path d="M0.693,12.784 C0.693,11.086 1.045,9.605 1.75,8.341 C2.455,7.077 3.445,6.001 4.722,5.112 C5.998,4.222 7.53,3.489 9.317,2.913 C11.104,2.337 13.07,1.887 15.215,1.564 C17.36,1.24 19.657,1.022 22.108,0.91 C24.559,0.798 27.092,0.742 29.706,0.742 C33.219,0.742 36.897,0.872 40.742,1.135 C44.587,1.397 48.598,1.874 52.776,2.567 C53.744,2.754 54.426,3.091 54.819,3.578 C55.213,4.064 55.409,4.608 55.409,5.206 C55.409,5.653 55.319,6.088 55.137,6.512 C54.955,6.936 54.713,7.326 54.41,7.683 C54.108,8.041 53.755,8.325 53.351,8.537 C52.947,8.749 52.523,8.855 52.079,8.855 C50.525,8.855 48.906,8.755 47.22,8.553 C45.535,8.352 43.78,8.126 41.953,7.874 C40.126,7.622 38.244,7.371 36.307,7.12 C34.369,6.868 32.371,6.68 30.313,6.554 C29.949,9.179 29.432,11.779 28.761,14.357 C28.09,16.935 27.402,19.576 26.699,22.28 C25.995,24.984 25.292,27.684 24.59,30.378 C23.889,33.073 23.217,35.656 22.574,38.126 C21.93,40.596 21.337,42.876 20.794,44.965 C20.25,47.055 19.783,48.851 19.391,50.354 C19.224,51.029 18.967,51.648 18.62,52.212 C18.274,52.777 17.886,53.267 17.456,53.683 C17.026,54.1 16.58,54.421 16.118,54.65 C15.657,54.877 15.227,54.992 14.828,54.992 C13.633,54.992 12.648,54.719 11.874,54.174 C11.1,53.629 10.714,52.751 10.714,51.54 C10.714,51.157 10.774,50.733 10.895,50.269 C11.339,48.487 11.783,46.705 12.227,44.923 C12.671,43.141 13.136,41.276 13.622,39.327 C14.108,37.379 14.724,35.325 15.471,33.165 C16.217,31.006 17.045,28.629 17.953,26.035 C18.862,23.442 19.845,20.534 20.905,17.312 C21.965,14.09 23.11,10.504 24.341,6.554 C23.271,6.638 22.186,6.734 21.087,6.839 C19.986,6.945 18.917,7.088 17.878,7.268 C16.838,7.447 15.852,7.674 14.921,7.949 C13.989,8.224 13.137,8.573 12.367,8.995 C11.596,9.418 10.987,9.925 10.539,10.516 C10.09,11.108 9.866,11.805 9.866,12.608 C9.866,12.651 9.842,12.883 9.795,13.305 C9.747,13.728 9.58,14.188 9.295,14.684 C9.009,15.181 8.557,15.636 7.937,16.048 C7.318,16.46 6.437,16.665 5.294,16.665 C4.151,16.665 3.265,16.463 2.636,16.059 C2.007,15.655 1.55,15.21 1.264,14.724 C0.922,14.159 0.731,13.512 0.693,12.784" id="Fill-1"></path>
                        <path d="M64.416,45.552 C63.951,46.205 63.331,46.971 62.554,47.848 C61.778,48.726 60.905,49.563 59.936,50.358 C58.967,51.155 57.928,51.827 56.818,52.379 C55.708,52.93 54.598,53.205 53.488,53.205 C52.147,53.205 51.029,52.781 50.134,51.932 C49.239,51.082 48.466,49.85 47.815,48.231 C47.326,48.79 46.726,49.36 46.014,49.939 C45.302,50.518 44.523,51.042 43.679,51.512 C42.835,51.981 41.955,52.366 41.04,52.665 C40.124,52.965 39.209,53.115 38.293,53.115 C37.324,53.115 36.381,52.916 35.463,52.519 C34.544,52.122 33.732,51.552 33.026,50.809 C32.319,50.066 31.754,49.159 31.33,48.091 C30.907,47.022 30.695,45.815 30.695,44.472 C30.695,42.964 30.908,41.415 31.334,39.826 C31.761,38.238 32.42,36.518 33.314,34.668 C34.207,32.817 35.166,31.219 36.192,29.871 C37.217,28.524 38.338,27.347 39.557,26.342 C40.775,25.336 42.059,24.536 43.409,23.943 C44.759,23.35 46.135,23.053 47.535,23.053 C48.003,23.053 48.368,23.145 48.632,23.328 C48.896,23.512 49.114,23.721 49.287,23.955 C49.459,24.19 49.626,24.42 49.789,24.644 C49.952,24.868 50.154,25.031 50.398,25.134 C50.641,25.236 50.891,25.302 51.144,25.332 C51.398,25.363 51.657,25.378 51.921,25.378 C52.144,25.378 52.372,25.373 52.606,25.363 C52.84,25.352 53.068,25.347 53.291,25.347 C53.596,25.347 53.88,25.378 54.144,25.439 C54.408,25.5 54.641,25.633 54.844,25.837 C55.046,26.041 55.203,26.326 55.314,26.694 C55.425,27.06 55.481,27.56 55.481,28.192 C55.481,29.158 55.379,30.227 55.178,31.403 C54.976,32.579 54.744,33.784 54.484,35.018 C54.224,36.252 53.927,37.659 53.594,39.238 C53.261,40.818 53.094,42.148 53.094,43.231 C53.094,44.156 53.18,44.879 53.351,45.4 C53.523,45.921 53.891,46.182 54.456,46.182 C54.88,46.182 55.324,46.077 55.788,45.867 C56.253,45.657 56.722,45.382 57.196,45.042 C57.67,44.702 58.145,44.317 58.619,43.887 C59.093,43.456 59.542,43.011 59.966,42.551 C60.955,41.47 61.953,40.25 62.963,38.889 L64.416,45.552 L64.416,45.552 Z M38.445,43.18 C38.445,43.701 38.48,44.206 38.551,44.695 C38.621,45.184 38.748,45.621 38.93,46.007 C39.112,46.391 39.354,46.704 39.658,46.943 C39.961,47.182 40.345,47.302 40.81,47.302 C41.557,47.302 42.235,46.977 42.842,46.326 C43.448,45.677 43.974,44.894 44.418,43.98 C44.863,43.066 45.222,42.121 45.495,41.146 C45.768,40.17 45.945,39.358 46.026,38.707 L48.284,28.866 C47.456,28.866 46.649,29.071 45.862,29.481 C45.075,29.891 44.333,30.447 43.636,31.146 C42.94,31.847 42.299,32.647 41.714,33.547 C41.129,34.448 40.553,35.558 39.989,36.879 C39.423,38.199 39.025,39.36 38.793,40.36 C38.56,41.36 38.445,42.3 38.445,43.18 L38.445,43.18 Z" id="Fill-2"></path>
                        <path d="M74.67,47.242 C76.701,47.242 78.552,47.046 80.226,46.656 C81.898,46.265 83.416,45.737 84.779,45.073 C86.141,44.409 87.371,43.632 88.472,42.743 C89.572,41.854 90.566,40.901 91.453,39.885 L91.786,46.597 C91.141,47.436 90.359,48.249 89.441,49.035 C88.522,49.821 87.518,50.509 86.428,51.101 C85.338,51.693 84.193,52.166 82.992,52.521 C81.791,52.876 80.606,53.054 79.435,53.054 C79.294,53.054 79.118,53.032 78.907,52.989 C78.697,52.945 78.329,52.868 77.807,52.76 C77.283,52.652 76.535,52.504 75.56,52.32 C74.584,52.134 73.263,51.911 71.594,51.65 L71.594,52.198 C71.594,55.885 71.277,59.235 70.643,62.243 C70.009,65.253 69.161,67.822 68.101,69.95 C67.04,72.077 65.825,73.719 64.452,74.874 C63.08,76.03 61.657,76.607 60.181,76.607 C59.031,76.607 58.072,76.322 57.305,75.753 C56.538,75.184 55.928,74.417 55.474,73.452 C55.019,72.488 54.697,71.36 54.505,70.07 C54.313,68.78 54.217,67.413 54.217,65.97 C54.217,65.132 54.349,64.187 54.611,63.134 C54.873,62.081 55.226,60.978 55.67,59.823 C56.115,58.667 56.614,57.492 57.169,56.296 C57.724,55.1 58.294,53.94 58.879,52.816 C60.251,50.2 61.816,47.502 63.572,44.721 C63.796,43.197 64.026,41.634 64.261,40.032 C64.496,38.43 64.794,36.858 65.157,35.315 C65.519,33.772 66.077,32.155 66.833,30.462 C67.589,28.768 68.396,27.411 69.255,26.389 C70.115,25.368 71.144,24.556 72.344,23.954 C73.544,23.354 74.994,23.053 76.691,23.053 C77.92,23.053 79.069,23.221 80.138,23.556 C81.205,23.891 82.143,24.435 82.949,25.186 C83.756,25.938 84.391,26.909 84.855,28.097 C85.318,29.285 85.55,30.743 85.55,32.471 C85.55,34.307 85.348,35.743 84.946,36.779 C84.341,38.323 83.56,39.661 82.604,40.794 C81.646,41.928 80.508,42.987 79.188,43.974 C77.868,44.961 76.302,45.845 74.49,46.626 L74.67,47.242 L74.67,47.242 Z M59.999,66.331 C59.999,66.493 60.035,66.753 60.105,67.115 C60.176,67.476 60.292,67.837 60.453,68.199 C60.615,68.56 60.826,68.881 61.089,69.161 C61.351,69.443 61.674,69.583 62.058,69.583 C62.401,69.583 62.683,69.398 62.906,69.027 C63.127,68.655 63.309,68.159 63.451,67.536 C63.591,66.913 63.693,66.211 63.753,65.429 C63.814,64.645 63.861,63.842 63.896,63.02 C63.93,62.197 63.952,61.394 63.963,60.612 C63.974,59.827 64.001,59.125 64.043,58.503 C64.108,57.419 64.155,56.501 64.187,55.748 C64.219,54.995 64.245,54.368 64.268,53.867 C64.287,53.303 64.308,52.815 64.328,52.401 C63.945,53.065 63.572,53.835 63.208,54.712 C62.845,55.588 62.501,56.499 62.179,57.448 C61.856,58.394 61.563,59.341 61.301,60.287 C61.038,61.235 60.811,62.116 60.62,62.932 C60.428,63.747 60.277,64.452 60.166,65.047 C60.054,65.641 59.999,66.07 59.999,66.331 L59.999,66.331 Z M70.832,44.282 C72.043,43.695 73.094,43.041 73.983,42.318 C74.83,41.595 75.577,40.823 76.224,40.002 C76.487,39.964 77.112,39.065 78.102,37.306 C78.768,35.802 79.192,34.649 79.374,33.848 C79.475,33.418 79.54,32.915 79.571,32.339 C79.601,31.763 79.54,31.22 79.39,30.712 C79.24,30.204 78.978,29.769 78.606,29.408 C78.234,29.046 77.716,28.866 77.052,28.866 C76.305,28.866 75.649,29.066 75.083,29.466 C74.518,29.867 74.028,30.409 73.615,31.093 C73.2,31.777 72.857,32.588 72.584,33.525 C72.312,34.463 71.989,35.621 71.615,36.998 C71.24,38.376 71.017,39.646 70.944,40.808 C70.869,41.971 70.832,43.129 70.832,44.282 L70.832,44.282 Z" id="Fill-3"></path>
                    </g>
                </g>
            </g>
        </g>
    </g>
</svg>